<svg width="14" height="13" viewBox="0 0 14 13" fill="none" xmlns="http://www.w3.org/2000/svg">
<path d="M0.583313 12.25H2.91665V5.24998H0.583313V12.25ZM13.4166 5.83331C13.4166 5.19165 12.8916 4.66665 12.25 4.66665H8.56915L9.12331 2.00081L9.14081 1.81415C9.14081 1.57498 9.04165 1.35331 8.88414 1.19581L8.26581 0.583313L4.42748 4.42748C4.21165 4.63748 4.08331 4.92915 4.08331 5.24998V11.0833C4.08331 11.725 4.60831 12.25 5.24998 12.25H10.5C10.9841 12.25 11.3983 11.9583 11.5733 11.5383L13.335 7.42581C13.3875 7.29165 13.4166 7.15165 13.4166 6.99998V5.83331Z" fill="#BCBCBC"/>
</svg>
